<?xml version="1.0" encoding="UTF-8" standalone="no"?>
<!-- Created with Inkscape (http://www.inkscape.org/) -->

<svg
   xmlns:dc="http://purl.org/dc/elements/1.1/"
   xmlns:cc="http://creativecommons.org/ns#"
   xmlns:rdf="http://www.w3.org/1999/02/22-rdf-syntax-ns#"
   xmlns:svg="http://www.w3.org/2000/svg"
   xmlns="http://www.w3.org/2000/svg"
   xmlns:sodipodi="http://sodipodi.sourceforge.net/DTD/sodipodi-0.dtd"
   xmlns:inkscape="http://www.inkscape.org/namespaces/inkscape"
   id="svg2"
   version="1.1"
   inkscape:version="0.48.3.1 r9886"
   width="155"
   height="170"
   xml:space="preserve"
   sodipodi:docname="logoEEL11.pdf"><metadata
     id="metadata8"><rdf:RDF><cc:Work
         rdf:about=""><dc:format>image/svg+xml</dc:format><dc:type
           rdf:resource="http://purl.org/dc/dcmitype/StillImage" /><dc:title></dc:title></cc:Work></rdf:RDF></metadata><defs
     id="defs6" /><sodipodi:namedview
     pagecolor="#ffffff"
     bordercolor="#666666"
     borderopacity="1"
     objecttolerance="10"
     gridtolerance="10"
     guidetolerance="10"
     inkscape:pageopacity="0"
     inkscape:pageshadow="2"
     inkscape:window-width="640"
     inkscape:window-height="480"
     id="namedview4"
     showgrid="false"
     inkscape:zoom="1.3882353"
     inkscape:cx="77.5"
     inkscape:cy="85"
     inkscape:window-x="0"
     inkscape:window-y="0"
     inkscape:window-maximized="0"
     inkscape:current-layer="g10" /><g
     id="g10"
     inkscape:groupmode="layer"
     inkscape:label="logoEEL11"
     transform="matrix(1.25,0,0,-1.25,0,170)"><g
       id="g12"><path
         d="m 72.66,86.797 -22.367,0 c -1.66,0 -3.656,-1.156 -4.488,-2.594 L 34.629,64.844 c -0.832,-1.442 -0.832,-3.75 0,-5.192 L 45.805,40.297 c 0.832,-1.442 2.828,-2.598 4.488,-2.598 l 22.367,0 c 1.66,0 3.656,1.156 4.488,2.598 l 11.176,19.355 c 0.832,1.442 0.832,3.75 0,5.192 L 77.148,84.203 c -0.832,1.438 -2.828,2.594 -4.488,2.594 z"
         style="fill:#c5ebfa;fill-opacity:1;fill-rule:nonzero;stroke:none"
         id="path14" /><path
         d="M 68.59,84.594 49.871,82.629 C 48.223,82.453 46.355,81.098 45.68,79.578 L 38.027,62.391 C 37.352,60.875 37.594,58.578 38.57,57.23 L 49.625,42.016 c 0.98,-1.348 3.086,-2.286 4.738,-2.114 l 18.719,1.969 c 1.648,0.172 3.516,1.527 4.191,3.047 l 7.653,17.187 c 0.676,1.52 0.433,3.817 -0.543,5.161 L 73.328,82.48 c -0.98,1.348 -3.086,2.29 -4.738,2.114 z"
         style="fill:#a8e3f8;fill-opacity:1;fill-rule:nonzero;stroke:none"
         id="path16" /><path
         d="M 65.363,82.594 49.648,79.254 C 48.023,78.91 46.312,77.367 45.797,75.785 L 40.836,60.512 C 40.324,58.93 40.801,56.676 41.91,55.441 L 52.664,43.5 c 1.109,-1.23 3.301,-1.941 4.926,-1.598 l 15.715,3.34 c 1.625,0.344 3.336,1.887 3.851,3.469 l 4.961,15.273 c 0.516,1.582 0.035,3.836 -1.074,5.071 L 70.289,80.996 c -1.109,1.234 -3.301,1.945 -4.926,1.598 z"
         style="fill:#8cd9f8;fill-opacity:1;fill-rule:nonzero;stroke:none"
         id="path18" /><path
         d="M 62.754,80.734 49.578,76.453 C 47.996,75.938 46.453,74.227 46.109,72.602 L 43.227,59.043 c -0.344,-1.625 0.367,-3.816 1.601,-4.926 L 55.129,44.84 c 1.234,-1.11 3.488,-1.59 5.07,-1.074 l 13.176,4.281 c 1.582,0.512 3.125,2.226 3.469,3.848 l 2.883,13.562 c 0.343,1.621 -0.368,3.813 -1.602,4.926 l -10.301,9.273 c -1.234,1.114 -3.488,1.59 -5.07,1.078 z"
         style="fill:#70d1f5;fill-opacity:1;fill-rule:nonzero;stroke:none"
         id="path20" /><path
         d="M 60.625,78.969 49.617,74.07 C 48.102,73.395 46.746,71.527 46.57,69.879 L 45.312,57.887 c -0.175,-1.653 0.766,-3.758 2.114,-4.739 l 9.738,-7.078 c 1.348,-0.976 3.645,-1.218 5.164,-0.543 l 11.008,4.903 c 1.516,0.675 2.871,2.539 3.047,4.191 l 1.258,11.992 c 0.175,1.649 -0.766,3.758 -2.114,4.735 l -9.738,7.078 c -1.348,0.976 -3.644,1.219 -5.164,0.543 z"
         style="fill:#54c7f3;fill-opacity:1;fill-rule:nonzero;stroke:none"
         id="path22" /><path
         d="M 58.879,77.285 49.75,72.016 c -1.438,-0.832 -2.594,-2.828 -2.594,-4.489 l 0,-10.558 c 0,-1.657 1.156,-3.657 2.598,-4.489 l 9.125,-5.269 c 1.441,-0.832 3.754,-0.832 5.195,0 l 9.129,5.269 c 1.438,0.832 2.594,2.829 2.594,4.489 l 0,10.558 c 0,1.661 -1.156,3.657 -2.598,4.489 l -9.125,5.269 c -1.441,0.832 -3.754,0.832 -5.195,0 z"
         style="fill:#38bdf3;fill-opacity:1;fill-rule:nonzero;stroke:none"
         id="path24" /><path
         d="m 61.477,127.715 c 0,-16.367 0,-16.367 -13.672,-40.051 -0.278,-0.48 -0.059,-0.867 0.496,-0.867 l 26.351,0 c 0.555,0 0.774,0.387 0.496,0.867 -13.671,23.684 -13.671,23.684 -13.671,40.051"
         style="fill:#e1f5fd;fill-opacity:1;fill-rule:nonzero;stroke:none"
         id="path26" /><path
         d="m 73.367,70.113 -11.023,6.364 c -0.481,0.277 -1.254,0.277 -1.735,0 L 49.586,70.113 c -0.481,-0.277 -0.863,-0.945 -0.863,-1.496 l 0,-12.738 c 0,-0.551 0.382,-1.219 0.863,-1.496 L 60.609,48.02 c 0.481,-0.278 1.254,-0.278 1.735,0 l 11.023,6.363 c 0.481,0.277 0.863,0.945 0.863,1.496 l 0,12.738 c 0,0.551 -0.382,1.219 -0.863,1.496 z"
         style="fill:#ffffff;fill-opacity:1;fill-rule:nonzero;stroke:none"
         id="path28" /><path
         d="m 52.973,65.082 0,2.836 17.007,0 0,-2.836 -17.007,0 z"
         style="fill:#7f7f7f;fill-opacity:1;fill-rule:nonzero;stroke:none"
         id="path30" /><path
         d="m 60.059,50.91 0,22.676 2.836,0 0,-22.676 -2.836,0 z"
         style="fill:#7f7f7f;fill-opacity:1;fill-rule:nonzero;stroke:none"
         id="path32" /><g
         id="g34"
         transform="translate(0,136)"><path
           d="m 61.477,-8.285 c 0,-16.367 0,-16.367 -13.672,-40.051 -0.278,-0.48 -0.723,-1.25 -1,-1.73 l -6.59,-11.411"
           style="fill:none;stroke:#0000ff;stroke-opacity:1;stroke-width:0.99628;stroke-linecap:butt;stroke-linejoin:miter;stroke-miterlimit:10;stroke-dasharray:none"
           id="path36" /></g><g
         id="g38"
         transform="translate(0,136)"><path
           d="m 61.477,-8.285 c 0,-16.367 0,-16.367 13.671,-40.051 0.278,-0.48 0.723,-1.25 1,-1.73 l 6.59,-11.411"
           style="fill:none;stroke:#0000ff;stroke-opacity:1;stroke-width:0.99628;stroke-linecap:butt;stroke-linejoin:miter;stroke-miterlimit:10;stroke-dasharray:none"
           id="path40" /></g><g
         id="g42"
         transform="translate(0,136)"><path
           d="m 86.027,-73.75 c 0,4.418 -1.082,8.445 -3.289,12.273"
           style="fill:none;stroke:#0000ff;stroke-opacity:1;stroke-width:0.99628;stroke-linecap:butt;stroke-linejoin:miter;stroke-miterlimit:10;stroke-dasharray:none"
           id="path44" /></g><g
         id="g46"
         transform="translate(0,136)"><path
           d="m 86.027,-73.75 c 0,-13.625 -10.925,-24.551 -24.55,-24.551 -13.625,0 -24.551,10.926 -24.551,24.551 0,4.418 1.082,8.445 3.289,12.273"
           style="fill:none;stroke:#0000ff;stroke-opacity:1;stroke-width:0.99628;stroke-linecap:butt;stroke-linejoin:miter;stroke-miterlimit:10;stroke-dasharray:none"
           id="path48" /></g><g
         id="g50"
         transform="translate(0,136)"><path
           d="m 74.785,-15.969 -12.441,7.184 c -0.481,0.277 -1.254,0.277 -1.735,0 l -12.441,-7.184 c -0.48,-0.277 -0.863,-0.945 -0.863,-1.496 l 0,-14.375 c 0,-0.551 0.383,-1.219 0.863,-1.496 l 12.441,-7.184 c 0.481,-0.277 1.254,-0.277 1.735,0 l 12.441,7.184 c 0.481,0.277 0.863,0.945 0.863,1.496 l 0,14.375 c 0,0.551 -0.382,1.219 -0.863,1.496 z"
           style="fill:none;stroke:#7f7fff;stroke-opacity:1;stroke-width:0.79701;stroke-linecap:butt;stroke-linejoin:miter;stroke-miterlimit:10;stroke-dasharray:none"
           id="path52" /></g><path
         d="m 68.023,111.348 c 0,3.632 -2.914,6.547 -6.546,6.547 -3.633,0 -6.547,-2.915 -6.547,-6.547 0,-3.633 2.914,-6.547 6.547,-6.547 3.632,0 6.546,2.914 6.546,6.547 z"
         style="fill:#7f7fff;fill-opacity:1;fill-rule:nonzero;stroke:none"
         id="path54" /><g
         id="g56"
         transform="translate(0,136)"><path
           d="m 67.699,-3.695 -5.355,3.09 c -0.481,0.277 -1.254,0.277 -1.735,0 l -5.351,-3.09 c -0.481,-0.278 -0.867,-0.946 -0.867,-1.496 l 0,-6.192 c 0,-0.555 0.386,-0.773 0.867,-0.496 l 5.351,3.09 c 0.481,0.277 1.254,0.277 1.735,0 l 5.355,-3.09 c 0.477,-0.277 0.863,-0.059 0.863,0.496 l 0,6.192 c 0,0.55 -0.386,1.218 -0.863,1.496 z"
           style="fill:none;stroke:#bfbfff;stroke-opacity:1;stroke-width:0.79701;stroke-linecap:butt;stroke-linejoin:miter;stroke-miterlimit:10;stroke-dasharray:none"
           id="path58" /></g><path
         d="m 64.75,127.711 c 0,1.816 -1.457,3.273 -3.273,3.273 -1.817,0 -3.274,-1.457 -3.274,-3.273 0,-1.816 1.457,-3.273 3.274,-3.273 1.816,0 3.273,1.457 3.273,3.273 z"
         style="fill:#bfbfff;fill-opacity:1;fill-rule:nonzero;stroke:none"
         id="path60" /><path
         d="m 85.098,86.797 c 0,5.246 -4.203,9.449 -9.45,9.449 -5.242,0 -9.445,-4.203 -9.445,-9.449 0,-5.242 4.203,-9.449 9.445,-9.449 5.247,0 9.45,4.207 9.45,9.449 z"
         style="fill:#d9d9ff;fill-opacity:1;fill-rule:nonzero;stroke:none"
         id="path62" /><g
         id="g64"
         transform="translate(0,136)"><path
           d="m 88.957,-40.52 -12.441,7.184 c -0.481,0.277 -1.25,0.277 -1.731,0 L 62.344,-40.52 c -0.481,-0.277 -0.867,-0.941 -0.867,-1.496 l 0,-14.371 c 0,-0.554 0.386,-1.218 0.867,-1.496 l 12.441,-7.187 c 0.481,-0.278 1.25,-0.278 1.731,0 l 12.441,7.187 c 0.481,0.278 0.867,0.942 0.867,1.496 l 0,14.371 c 0,0.555 -0.386,1.219 -0.867,1.496 z"
           style="fill:none;stroke:#d9d9ff;stroke-opacity:1;stroke-width:0.79701;stroke-linecap:butt;stroke-linejoin:miter;stroke-miterlimit:10;stroke-dasharray:none"
           id="path66" /></g><path
         d="m 99.273,62.25 c 0,5.242 -4.207,9.449 -9.449,9.449 -5.246,0 -9.449,-4.207 -9.449,-9.449 0,-5.246 4.203,-9.449 9.449,-9.449 5.242,0 9.449,4.203 9.449,9.449 z"
         style="fill:#b3b3ff;fill-opacity:1;fill-rule:nonzero;stroke:none"
         id="path68" /><g
         id="g70"
         transform="translate(0,136)"><path
           d="m 103.129,-65.07 -12.441,7.183 c -0.481,0.278 -1.25,0.278 -1.731,0 L 76.516,-65.07 c -0.481,-0.278 -0.864,-0.942 -0.864,-1.496 l 0,-14.372 c 0,-0.554 0.383,-1.218 0.864,-1.496 l 12.441,-7.183 c 0.481,-0.278 1.25,-0.278 1.731,0 l 12.441,7.183 c 0.48,0.278 0.867,0.942 0.867,1.496 l 0,14.372 c 0,0.554 -0.387,1.218 -0.867,1.496 z"
           style="fill:none;stroke:#b3b3ff;stroke-opacity:1;stroke-width:0.79701;stroke-linecap:butt;stroke-linejoin:miter;stroke-miterlimit:10;stroke-dasharray:none"
           id="path72" /></g><path
         d="m 85.098,37.699 c 0,5.246 -4.203,9.449 -9.45,9.449 -5.242,0 -9.445,-4.203 -9.445,-9.449 0,-5.242 4.203,-9.449 9.445,-9.449 5.247,0 9.45,4.207 9.45,9.449 z"
         style="fill:#8a8aff;fill-opacity:1;fill-rule:nonzero;stroke:none"
         id="path74" /><g
         id="g76"
         transform="translate(0,136)"><path
           d="m 88.957,-89.617 -12.441,7.183 c -0.481,0.278 -1.25,0.278 -1.731,0 l -12.441,-7.183 c -0.481,-0.278 -0.867,-0.945 -0.867,-1.496 l 0,-14.375 c 0,-0.551 0.386,-1.219 0.867,-1.496 l 12.441,-7.184 c 0.481,-0.277 1.25,-0.277 1.731,0 l 12.441,7.184 c 0.481,0.277 0.867,0.945 0.867,1.496 l 0,14.375 c 0,0.551 -0.386,1.218 -0.867,1.496 z"
           style="fill:none;stroke:#8a8aff;stroke-opacity:1;stroke-width:0.79701;stroke-linecap:butt;stroke-linejoin:miter;stroke-miterlimit:10;stroke-dasharray:none"
           id="path78" /></g><path
         d="m 56.754,37.699 c 0,5.246 -4.207,9.449 -9.449,9.449 -5.246,0 -9.45,-4.203 -9.45,-9.449 0,-5.242 4.204,-9.449 9.45,-9.449 5.242,0 9.449,4.207 9.449,9.449 z"
         style="fill:#6666ff;fill-opacity:1;fill-rule:nonzero;stroke:none"
         id="path80" /><g
         id="g82"
         transform="translate(0,136)"><path
           d="m 60.609,-89.617 -12.441,7.183 c -0.48,0.278 -1.25,0.278 -1.73,0 l -12.442,-7.183 c -0.48,-0.278 -0.867,-0.945 -0.867,-1.496 l 0,-14.375 c 0,-0.551 0.387,-1.219 0.867,-1.496 l 12.442,-7.184 c 0.48,-0.277 1.25,-0.277 1.73,0 l 12.441,7.184 c 0.481,0.277 0.868,0.945 0.868,1.496 l 0,14.375 c 0,0.551 -0.387,1.218 -0.868,1.496 z"
           style="fill:none;stroke:#6666ff;stroke-opacity:1;stroke-width:0.79701;stroke-linecap:butt;stroke-linejoin:miter;stroke-miterlimit:10;stroke-dasharray:none"
           id="path84" /></g><path
         d="m 42.578,62.25 c 0,5.242 -4.203,9.449 -9.449,9.449 -5.242,0 -9.449,-4.207 -9.449,-9.449 0,-5.246 4.207,-9.449 9.449,-9.449 5.246,0 9.449,4.203 9.449,9.449 z"
         style="fill:#3f3fff;fill-opacity:1;fill-rule:nonzero;stroke:none"
         id="path86" /><g
         id="g88"
         transform="translate(0,136)"><path
           d="m 46.438,-65.07 -12.442,7.183 c -0.48,0.278 -1.25,0.278 -1.73,0 L 19.824,-65.07 c -0.48,-0.278 -0.867,-0.942 -0.867,-1.496 l 0,-14.372 c 0,-0.554 0.387,-1.218 0.867,-1.496 l 12.442,-7.183 c 0.48,-0.278 1.25,-0.278 1.73,0 l 12.442,7.183 c 0.48,0.278 0.867,0.942 0.867,1.496 l 0,14.372 c 0,0.554 -0.387,1.218 -0.867,1.496 z"
           style="fill:none;stroke:#3f3fff;stroke-opacity:1;stroke-width:0.79701;stroke-linecap:butt;stroke-linejoin:miter;stroke-miterlimit:10;stroke-dasharray:none"
           id="path90" /></g><path
         d="m 56.754,86.797 c 0,5.246 -4.207,9.449 -9.449,9.449 -5.246,0 -9.45,-4.203 -9.45,-9.449 0,-5.242 4.204,-9.449 9.45,-9.449 5.242,0 9.449,4.207 9.449,9.449 z"
         style="fill:#1717ff;fill-opacity:1;fill-rule:nonzero;stroke:none"
         id="path92" /><g
         id="g94"
         transform="translate(0,136)"><path
           d="m 60.609,-40.52 -12.441,7.184 c -0.48,0.277 -1.25,0.277 -1.73,0 L 33.996,-40.52 c -0.48,-0.277 -0.867,-0.941 -0.867,-1.496 l 0,-14.371 c 0,-0.554 0.387,-1.218 0.867,-1.496 l 12.442,-7.187 c 0.48,-0.278 1.25,-0.278 1.73,0 l 12.441,7.187 c 0.481,0.278 0.868,0.942 0.868,1.496 l 0,14.371 c 0,0.555 -0.387,1.219 -0.868,1.496 z"
           style="fill:none;stroke:#1717ff;stroke-opacity:1;stroke-width:0.79701;stroke-linecap:butt;stroke-linejoin:miter;stroke-miterlimit:10;stroke-dasharray:none"
           id="path96" /></g><path
         d="m 67.922,83.699 c 0.125,0.078 0.25,-0.062 0.39,-0.312 l 1.282,-2.219 c 0.14,-0.234 0.187,-0.453 -0.032,-0.594 l -0.39,-0.265 c -0.031,-0.032 -0.031,-0.063 -0.016,-0.063 l 0.078,-0.156 0.016,-0.016 c 0.234,0.141 0.719,0.438 0.953,0.578 0.25,0.141 0.656,0.36 0.906,0.5 l 0.016,0.032 -0.078,0.156 c -0.031,0.031 -0.063,0.015 -0.078,0 l -0.375,-0.172 c -0.188,-0.094 -0.375,0.047 -0.516,0.281 l -1.375,2.375 c -0.234,0.406 -0.469,0.844 -0.515,0.938 -0.016,0.031 -0.016,0.015 -0.047,0 -0.235,-0.453 -0.485,-0.813 -0.938,-1.453 l 0.219,-0.125 c 0.234,0.328 0.375,0.453 0.5,0.515 z"
         style="fill:#000073;fill-opacity:1;fill-rule:nonzero;stroke:none"
         id="path98" /><path
         d="m 74.02,82.766 c 0.671,0.39 1.109,1.062 1.218,1.937 -0.062,0.047 -0.14,0.047 -0.203,0 -0.187,-0.797 -0.547,-1.281 -1.172,-1.656 -1.093,-0.625 -2.218,0.156 -2.797,1.156 -0.812,1.406 -0.156,2.578 0.375,2.891 0.954,0.547 1.688,0.203 2.188,-0.282 l 0.187,0.157 c -0.265,0.297 -0.515,0.609 -0.75,0.969 -0.406,-0.204 -0.859,-0.063 -1.687,-0.547 -1.156,-0.672 -1.625,-2.297 -0.844,-3.657 0.641,-1.109 1.985,-1.828 3.485,-0.968 z"
         style="fill:#000073;fill-opacity:1;fill-rule:nonzero;stroke:none"
         id="path100" /><path
         d="m 75.418,85.551 c 0.406,-0.703 1.344,-1.203 2.266,-0.672 0.968,0.562 0.921,1.672 0.531,2.359 -0.422,0.719 -1.297,1.328 -2.313,0.75 -0.922,-0.531 -1.031,-1.5 -0.484,-2.437 z m 0.547,2.156 c 0.578,0.328 1.203,-0.016 1.797,-1.016 0.531,-0.921 0.218,-1.343 -0.094,-1.515 -0.688,-0.406 -1.438,0.344 -1.75,0.859 -0.344,0.61 -0.484,1.36 0.047,1.672 z"
         style="fill:#000073;fill-opacity:1;fill-rule:nonzero;stroke:none"
         id="path102" /><path
         d="m 78.746,89.949 c 0.125,0.078 0.25,-0.062 0.391,-0.312 l 1.281,-2.219 c 0.141,-0.234 0.187,-0.453 -0.031,-0.594 L 79.996,86.559 C 79.965,86.527 79.965,86.496 79.98,86.496 l 0.079,-0.156 0.015,-0.016 c 0.235,0.141 0.719,0.438 0.953,0.578 0.25,0.141 0.657,0.36 0.907,0.5 l 0.015,0.032 -0.078,0.156 c -0.031,0.031 -0.062,0.015 -0.078,0 l -0.375,-0.172 c -0.188,-0.094 -0.375,0.047 -0.516,0.281 l -1.375,2.375 c -0.234,0.406 -0.468,0.844 -0.515,0.938 -0.016,0.031 -0.016,0.015 -0.047,0 -0.235,-0.453 -0.485,-0.813 -0.938,-1.453 l 0.219,-0.125 c 0.234,0.328 0.375,0.453 0.5,0.515 z"
         style="fill:#000073;fill-opacity:1;fill-rule:nonzero;stroke:none"
         id="path104" /><path
         d="m 81,90.969 c 0.078,-0.141 0.266,-0.203 0.406,-0.125 0.125,0.078 0.219,0.234 0.125,0.406 -0.031,0.047 -0.078,0.094 -0.125,0.141 -0.047,0.031 -0.094,0.078 -0.125,0.14 -0.093,0.172 -0.109,0.485 0.375,0.766 0.235,0.141 0.766,0.203 1.141,-0.422 0.234,-0.422 0.265,-0.859 0.094,-1.484 l -0.188,-0.735 c -0.281,-1.047 -0.203,-1.406 0.016,-1.797 0,0 0.312,0.203 0.515,0.313 l 1.141,0.656 c 0.219,0.125 0.516,0.281 0.516,0.281 l -0.422,1.125 -0.203,-0.046 c 0.172,-0.547 0.109,-0.766 -0.11,-0.907 l -1.172,-0.672 c -0.172,0.313 0.032,1 0.032,1.063 l 0.296,1.016 c 0.172,0.562 0.282,1.031 0,1.515 -0.406,0.703 -1.203,0.625 -1.734,0.328 C 80.844,92.109 80.781,91.359 81,90.969 z"
         style="fill:#000073;fill-opacity:1;fill-rule:nonzero;stroke:none"
         id="path106" /><path
         d="m 83.062,64.586 c 0.485,0 1.094,-0.188 1.094,-1.125 0,-1 -0.609,-1.219 -1.375,-1.219 l -0.406,0 0,1.985 c 0,0.234 0.125,0.359 0.687,0.359 z m -0.015,0.281 c -0.203,0 -0.688,-0.078 -1,-0.078 -0.313,0 -0.625,0 -1,0.016 l -0.016,-0.016 0,-0.172 c 0,-0.031 0.016,-0.047 0.047,-0.047 l 0.313,-0.015 c 0.125,0 0.343,-0.078 0.343,-0.328 l 0,-4 c 0,-0.235 -0.109,-0.329 -0.437,-0.344 l -0.203,-0.016 c -0.047,0 -0.063,-0.031 -0.063,-0.062 l 0,-0.157 0.016,-0.015 c 0.375,0 0.703,0.015 1,0.015 0.328,0 0.656,-0.015 1.031,-0.015 l 0.016,0.015 0,0.157 c 0,0.031 -0.032,0.062 -0.063,0.062 l -0.219,0.016 c -0.312,0.015 -0.437,0.094 -0.437,0.344 l 0,1.734 c 0.672,0 0.844,-0.109 0.953,-0.297 l 0.86,-1.391 c 0.218,-0.375 0.562,-0.703 1.046,-0.703 0.125,0 0.25,0.016 0.328,0.047 l 0,0.203 c -0.359,0 -0.562,0.266 -0.765,0.61 l -1,1.672 c 0.344,0.109 1.047,0.531 1.047,1.359 0,0.406 -0.125,0.734 -0.422,1 -0.375,0.359 -0.875,0.406 -1.375,0.406 z"
         style="fill:#00004a;fill-opacity:1;fill-rule:nonzero;stroke:none"
         id="path108" /><path
         d="m 86.914,63.148 c 0,0.016 -0.016,0.016 -0.031,0.016 -0.235,-0.078 -0.531,-0.156 -1.094,-0.234 l 0.016,-0.203 0.343,-0.032 c 0.11,-0.015 0.172,-0.093 0.172,-0.484 l 0,-1.984 c 0,-0.235 -0.078,-0.313 -0.343,-0.344 L 85.82,59.867 c -0.031,-0.015 -0.062,-0.031 -0.062,-0.062 l 0,-0.157 0.015,-0.015 c 0.329,0 0.516,0.015 0.829,0.015 0.328,0 0.5,-0.015 0.812,-0.015 l 0.016,0.015 0,0.157 c 0,0.031 -0.032,0.047 -0.063,0.062 l -0.109,0.016 c -0.219,0.031 -0.344,0.109 -0.344,0.344 l 0,1.968 c 0.375,0.391 0.672,0.563 0.953,0.563 0.297,0 0.531,-0.188 0.531,-0.719 l 0,-1.812 c 0,-0.235 -0.109,-0.313 -0.343,-0.344 l -0.11,-0.016 c -0.047,-0.015 -0.078,-0.031 -0.078,-0.062 l 0,-0.157 0.016,-0.015 c 0.328,0 0.484,0.015 0.797,0.015 0.328,0 0.5,-0.015 0.812,-0.015 l 0.016,0.015 0,0.157 c 0,0.031 -0.031,0.047 -0.078,0.062 l -0.094,0.016 c -0.219,0.031 -0.344,0.109 -0.344,0.344 l 0,1.656 c 0,0.109 0,0.234 -0.015,0.328 0.39,0.422 0.671,0.547 0.984,0.547 0.297,0 0.516,-0.172 0.516,-0.703 l 0,-1.828 c 0,-0.235 -0.125,-0.313 -0.344,-0.344 l -0.11,-0.016 c -0.031,-0.015 -0.062,-0.031 -0.062,-0.062 l 0,-0.157 0.016,-0.015 c 0.328,0 0.484,0.015 0.796,0.015 0.313,0 0.532,-0.015 0.844,-0.015 l 0.016,0.015 0,0.157 c 0,0.031 -0.031,0.062 -0.063,0.062 l -0.156,0.016 c -0.25,0.015 -0.344,0.109 -0.344,0.344 l 0,1.656 c 0,0.703 -0.125,1.265 -0.828,1.265 -0.437,0 -0.859,-0.187 -1.312,-0.656 -0.047,0.36 -0.328,0.656 -0.782,0.656 -0.484,0 -0.859,-0.265 -1.234,-0.671 l -0.016,0 0.016,0.671 z"
         style="fill:#00004a;fill-opacity:1;fill-rule:nonzero;stroke:none"
         id="path110" /><path
         d="m 93.254,63.445 c 0.141,0 0.172,-0.187 0.172,-0.468 l 0,-2.563 c 0,-0.281 -0.063,-0.5 -0.313,-0.516 l -0.468,-0.031 c -0.047,0 -0.063,-0.031 -0.063,-0.047 l 0,-0.172 0.016,-0.015 c 0.281,0 0.828,0.015 1.109,0.015 0.281,0 0.75,-0.015 1.047,-0.015 l 0.016,0.015 0,0.172 c 0,0.047 -0.032,0.047 -0.063,0.047 l -0.406,0.031 c -0.219,0.016 -0.313,0.235 -0.313,0.516 l 0,2.734 c 0,0.469 0.016,0.969 0.032,1.063 0,0.047 -0.016,0.047 -0.047,0.047 -0.438,-0.281 -0.828,-0.469 -1.532,-0.797 l 0.125,-0.219 c 0.36,0.156 0.547,0.203 0.688,0.203 z"
         style="fill:#00004a;fill-opacity:1;fill-rule:nonzero;stroke:none"
         id="path112" /><path
         d="m 95.715,63.18 c 0,-0.157 0.125,-0.297 0.297,-0.297 0.14,0 0.297,0.078 0.297,0.281 0,0.063 -0.016,0.125 -0.032,0.188 -0.015,0.046 -0.031,0.109 -0.031,0.171 0,0.204 0.141,0.485 0.703,0.485 0.266,0 0.766,-0.203 0.766,-0.938 0,-0.484 -0.188,-0.875 -0.641,-1.328 l -0.547,-0.547 c -0.75,-0.765 -0.859,-1.109 -0.859,-1.562 0,0 0.359,0.015 0.594,0.015 l 1.312,0 c 0.25,0 0.594,-0.015 0.594,-0.015 l 0.187,1.187 -0.203,0.047 C 98.027,60.32 97.871,60.148 97.605,60.148 l -1.343,0 c 0,0.36 0.515,0.86 0.562,0.907 l 0.75,0.734 c 0.438,0.406 0.766,0.75 0.766,1.313 0,0.812 -0.735,1.156 -1.344,1.156 -0.844,0 -1.281,-0.625 -1.281,-1.078 z"
         style="fill:#00004a;fill-opacity:1;fill-rule:nonzero;stroke:none"
         id="path114" /><path
         d="m 73.48,42.801 c 0.016,0.015 0,0.031 -0.015,0.047 -0.141,0.031 -0.188,0.062 -0.344,0.156 l -1.75,1 c -0.266,0.156 -0.547,0.328 -0.859,0.531 L 70.48,44.52 70.402,44.379 c -0.015,-0.016 -0.015,-0.047 0.032,-0.078 l 0.203,-0.125 c 0.25,-0.172 0.297,-0.313 0.172,-0.531 l -1.985,-3.438 c -0.109,-0.203 -0.25,-0.219 -0.531,-0.078 l -0.203,0.094 c -0.047,0.031 -0.078,0 -0.094,-0.016 l -0.078,-0.141 0.016,-0.015 c 0.328,-0.188 0.609,-0.344 0.875,-0.5 l 1.484,-0.844 c 0.328,-0.203 0.875,-0.531 0.875,-0.531 l 0.906,1.015 -0.187,0.157 c -0.422,-0.422 -0.922,-0.672 -1.438,-0.375 l -0.953,0.547 c -0.141,0.078 -0.219,0.187 -0.109,0.375 l 1,1.734 0.875,-0.516 c 0.234,-0.125 0.297,-0.25 0.172,-0.453 l -0.063,-0.187 c -0.016,-0.032 -0.016,-0.063 0.016,-0.078 l 0.14,-0.079 0.047,0 c 0.141,0.266 0.235,0.469 0.313,0.61 0.078,0.14 0.218,0.328 0.39,0.609 l -0.015,0.031 -0.141,0.079 C 72.09,41.66 72.059,41.66 72.043,41.629 l -0.125,-0.156 c -0.125,-0.203 -0.266,-0.235 -0.5,-0.11 l -0.875,0.516 0.828,1.453 c 0.094,0.156 0.219,0.203 0.375,0.109 L 72.48,43.02 c 0.516,-0.297 0.485,-0.672 0.344,-1.219 l 0.235,-0.078 c 0.125,0.281 0.39,1 0.421,1.078 z"
         style="fill:#000023;fill-opacity:1;fill-rule:nonzero;stroke:none"
         id="path116" /><path
         d="m 73.926,39.473 c 0.375,0.265 0.828,0.265 1.047,0.125 0.422,-0.235 0.515,-0.938 0.062,-1.719 -0.328,-0.578 -0.937,-1.172 -1.672,-0.734 -0.109,0.062 -0.328,0.203 -0.406,0.625 l 0.969,1.703 z m -0.453,0.359 -1.922,-3.328 c -0.11,-0.188 -0.25,-0.219 -0.485,-0.125 l -0.125,0.062 c -0.031,0.016 -0.078,0.016 -0.093,-0.015 L 70.77,36.301 70.785,36.27 c 0.266,-0.141 0.485,-0.25 0.719,-0.391 0.266,-0.156 0.484,-0.297 0.75,-0.453 l 0.016,0.015 0.078,0.125 c 0.015,0.032 0,0.063 -0.047,0.079 l -0.125,0.093 c -0.188,0.157 -0.235,0.282 -0.125,0.469 l 0.687,1.188 c 0.141,-0.204 0.297,-0.36 0.532,-0.5 0.375,-0.204 0.765,-0.297 1.187,-0.188 0.5,0.156 0.922,0.469 1.25,1.031 0.422,0.735 0.313,1.703 -0.359,2.078 -0.203,0.125 -0.625,0.282 -1.235,-0.031 l 0,0 0.328,0.563 c 0,0.015 0,0.015 -0.015,0.031 -0.235,0.047 -0.547,0.125 -1.063,0.344 l -0.093,-0.188 0.281,-0.203 c 0.094,-0.062 0.109,-0.156 -0.078,-0.5 z"
         style="fill:#000023;fill-opacity:1;fill-rule:nonzero;stroke:none"
         id="path118" /><path
         d="m 78.457,39.344 c 0.266,0.453 0.453,0.718 0.453,0.718 0.031,0.047 0.016,0.079 -0.047,0.11 -0.234,0.047 -0.75,0.219 -1.047,0.375 l -0.078,-0.188 c -0.015,-0.015 0,-0.047 0.016,-0.047 l 0.219,-0.156 c 0.14,-0.078 0.156,-0.203 -0.11,-0.64 L 75.91,36.125 C 75.801,35.922 75.691,35.891 75.441,36 l -0.14,0.062 c -0.031,0 -0.047,-0.015 -0.063,-0.031 l -0.078,-0.14 0.016,-0.016 c 0.328,-0.203 0.422,-0.234 0.703,-0.391 0.281,-0.172 0.391,-0.25 0.734,-0.453 l 0.016,0.016 0.078,0.141 c 0.016,0.015 0,0.062 -0.016,0.078 l -0.14,0.093 c -0.219,0.141 -0.235,0.266 -0.125,0.469 l 0.984,1.703 c 0.531,0.125 0.938,0.125 1.125,0.016 0.391,-0.219 0.469,-0.422 0.141,-0.985 l -0.891,-1.531 c -0.109,-0.203 -0.203,-0.234 -0.469,-0.125 l -0.125,0.063 c -0.046,0 -0.078,0 -0.093,-0.016 l -0.078,-0.141 0.015,-0.015 c 0.36,-0.203 0.453,-0.25 0.719,-0.406 0.281,-0.157 0.406,-0.25 0.75,-0.438 l 0,0 0.078,0.141 c 0.016,0.015 0.016,0.062 -0.016,0.078 l -0.14,0.094 c -0.203,0.156 -0.235,0.265 -0.125,0.468 l 0.844,1.469 c 0.406,0.703 0.39,1.203 -0.11,1.5 -0.281,0.156 -0.75,0.281 -1.469,0.094 l 0.891,1.547 z"
         style="fill:#000023;fill-opacity:1;fill-rule:nonzero;stroke:none"
         id="path120" /><path
         d="m 82.199,33.633 -0.547,0.328 0.657,1.125 c 0.078,0.141 0.109,0.219 0.031,0.266 -0.11,0.062 -0.281,0.078 -0.391,0.062 -0.078,0.016 -0.125,-0.047 -0.156,-0.094 l -0.625,-1.093 -1.219,0.718 3.203,1.532 c 0.047,0.046 0.047,0.078 0.016,0.109 L 82.98,36.68 c -0.031,0.031 -0.093,0.015 -0.125,0 l -3.296,-1.516 c -0.032,-0.016 -0.032,-0.016 -0.032,-0.031 -0.047,-0.094 -0.078,-0.297 0.125,-0.422 l 1.344,-0.781 -0.328,-0.563 c -0.109,-0.203 -0.25,-0.219 -0.469,-0.125 l -0.187,0.094 c -0.032,0.031 -0.078,0 -0.078,-0.016 l -0.079,-0.14 0.016,-0.016 c 0,0 0.438,-0.25 0.719,-0.406 0.281,-0.172 0.719,-0.438 0.719,-0.438 l 0.015,0.016 0.078,0.141 c 0,0.015 0.016,0.046 -0.015,0.078 l -0.188,0.109 c -0.187,0.141 -0.156,0.234 -0.047,0.438 l 0.328,0.562 0.454,-0.266 c 0.093,-0.062 0.265,0.016 0.296,0.094 0.047,0.063 0.032,0.11 -0.031,0.141 z"
         style="fill:#000023;fill-opacity:1;fill-rule:nonzero;stroke:none"
         id="path122" /><path
         d="m 45.348,83.688 0,3 c 1.187,0 3.812,-0.079 5.515,-0.25 l 0.078,0.078 c -0.046,0.218 -0.078,0.468 -0.078,0.687 0,0.235 0.032,0.485 0.078,0.703 l -0.078,0.078 c -1.453,-0.125 -2.593,-0.25 -5.515,-0.25 l 0,2.032 c 0,0.422 0.015,3.14 0.187,3.734 3.328,0 6.75,-0.297 6.75,-0.297 l 0.047,0.109 c -0.031,0.188 -0.047,0.422 -0.047,0.641 0,0.188 0.016,0.422 0.047,0.766 l -0.047,0.078 C 51.879,94.75 51.316,94.719 50.801,94.719 l -6.531,0 c -0.829,0 -1.25,0.078 -1.25,0.078 l -0.063,-0.078 c 0.203,-1.407 0.25,-3.094 0.25,-4.953 l 0,-6.078 c 0,-1.86 -0.047,-3.61 -0.25,-4.954 l 0.031,-0.078 c 0,0 0.422,0.078 1.282,0.078 l 6.765,0 c 0.531,0 1.094,-0.031 1.5,-0.078 l 0.047,0.078 c -0.031,0.344 -0.047,0.469 -0.047,0.719 0,0.25 0.016,0.625 0.047,0.813 l -0.047,0.109 c 0,0 -3.672,-0.297 -7,-0.297 -0.172,0.594 -0.187,3.188 -0.187,3.61 z"
         style="fill:#ffffff;fill-opacity:1;fill-rule:nonzero;stroke:none"
         id="path124" /><path
         d="m 31.176,59.141 0,3 c 1.187,0 3.812,-0.079 5.515,-0.25 l 0.079,0.078 c -0.047,0.219 -0.079,0.469 -0.079,0.687 0,0.235 0.032,0.485 0.079,0.703 l -0.079,0.079 c -1.453,-0.126 -2.593,-0.25 -5.515,-0.25 l 0,2.031 c 0,0.422 0.015,3.14 0.187,3.734 3.328,0 6.75,-0.297 6.75,-0.297 l 0.047,0.11 c -0.031,0.187 -0.047,0.422 -0.047,0.64 0,0.188 0.016,0.422 0.047,0.766 l -0.047,0.078 c -0.406,-0.047 -0.968,-0.078 -1.484,-0.078 l -6.531,0 c -0.828,0 -1.25,0.078 -1.25,0.078 l -0.063,-0.078 c 0.203,-1.406 0.25,-3.094 0.25,-4.953 l 0,-6.078 c 0,-1.86 -0.047,-3.61 -0.25,-4.953 l 0.031,-0.079 c 0,0 0.422,0.079 1.282,0.079 l 6.765,0 c 0.532,0 1.094,-0.032 1.5,-0.079 l 0.047,0.079 c -0.031,0.343 -0.047,0.468 -0.047,0.718 0,0.25 0.016,0.625 0.047,0.813 l -0.047,0.109 c 0,0 -3.672,-0.297 -7,-0.297 -0.172,0.594 -0.187,3.188 -0.187,3.61 z"
         style="fill:#ffffff;fill-opacity:1;fill-rule:nonzero;stroke:none"
         id="path126" /><path
         d="m 45.473,34.59 0,6.078 c 0,1.859 0.047,3.641 0.25,4.953 l -0.032,0.078 c 0,0 -0.421,-0.078 -1.281,-0.078 -0.844,0 -1.297,0.078 -1.297,0.078 l -0.047,-0.078 c 0.204,-1.406 0.266,-3.094 0.266,-4.953 l 0,-6.078 c 0,-1.86 -0.047,-3.61 -0.25,-4.953 l 0.031,-0.078 c 0,0 0.453,0.078 1.297,0.078 l 6.766,0 c 0.515,0 1.078,-0.032 1.484,-0.078 l 0.047,0.078 c -0.031,0.343 -0.047,0.468 -0.047,0.718 0,0.25 0.016,0.625 0.047,0.813 l -0.047,0.109 c 0,0 -3.672,-0.297 -7,-0.297 -0.172,0.594 -0.187,3.188 -0.187,3.61 z"
         style="fill:#ffffff;fill-opacity:1;fill-rule:nonzero;stroke:none"
         id="path128" /><path
         d="m 1.141,5.27 0,1.453 c 0.578,0 1.843,-0.047 2.671,-0.125 L 3.844,6.629 C 3.828,6.738 3.812,6.863 3.812,6.973 c 0,0.109 0.016,0.218 0.032,0.328 L 3.812,7.332 C 3.109,7.285 2.547,7.223 1.141,7.223 l 0,0.968 c 0,0.204 0.015,1.532 0.093,1.813 1.61,0 3.25,-0.141 3.25,-0.141 L 4.516,9.91 c -0.016,0.094 -0.032,0.203 -0.032,0.313 0,0.093 0.016,0.203 0.032,0.359 L 4.484,10.629 C 4.297,10.598 4.031,10.582 3.781,10.582 l -3.156,0 c -0.406,0 -0.609,0.047 -0.609,0.047 L 0,10.582 C 0.094,9.91 0.109,9.098 0.109,8.191 l 0,-2.921 C 0.109,4.379 0.094,3.52 0,2.879 L 0.016,2.848 c 0,0 0.203,0.031 0.609,0.031 l 3.266,0 c 0.25,0 0.531,-0.016 0.718,-0.031 L 4.641,2.879 C 4.625,3.051 4.609,3.113 4.609,3.223 c 0,0.125 0.016,0.297 0.032,0.39 L 4.609,3.66 c 0,0 -1.765,-0.14 -3.375,-0.14 C 1.156,3.816 1.141,5.066 1.141,5.27 z"
         style="fill:#000000;fill-opacity:1;fill-rule:nonzero;stroke:none"
         id="path130" /><path
         d="m 6.961,2.707 0.234,0 c 0.36,0 0.657,0.031 0.828,0.031 0.563,0 1.016,-0.015 1.344,-0.203 C 9.82,2.27 9.898,2.098 9.898,1.785 9.898,1.066 8.773,0.551 7.742,0.551 c -0.406,0 -1.359,0.265 -1.359,1.078 0,0.406 0.14,0.734 0.578,1.078 z m 2.844,3.625 c 0,0.563 -0.219,1.031 -0.578,1.344 0.359,-0.031 0.75,-0.078 1.25,-0.125 l 0.031,0.031 c -0.031,0.109 -0.031,0.203 -0.031,0.313 0,0.109 0,0.203 0.031,0.312 L 10.477,8.238 C 9.898,8.191 9.477,8.066 8.586,8.02 8.367,8.098 8.133,8.129 7.883,8.129 6.867,8.129 5.914,7.41 5.914,6.316 5.914,5.66 6.148,5.301 6.477,4.973 6.148,4.691 5.977,4.176 5.977,3.77 5.977,3.332 6.227,3.004 6.523,2.848 5.914,2.457 5.586,1.91 5.586,1.395 c 0,-1.032 0.953,-1.36 1.828,-1.36 1.531,0 3.219,0.735 3.219,2.031 0,0.375 -0.172,0.782 -0.516,1.063 C 9.68,3.52 8.852,3.52 8.445,3.52 8.242,3.52 7.961,3.504 7.68,3.457 7.523,3.457 7.398,3.441 7.336,3.441 c -0.328,0 -0.688,0.11 -0.688,0.625 0,0.235 0.063,0.485 0.204,0.688 0.265,-0.172 0.578,-0.25 1.015,-0.25 1,0 1.938,0.656 1.938,1.828 z M 8.898,6.207 c 0,-0.844 -0.562,-1.172 -0.968,-1.172 -0.797,0 -1.078,0.688 -1.078,1.453 0,0.532 0.296,1.11 0.921,1.11 0.719,0 1.125,-0.485 1.125,-1.391 z"
         style="fill:#000000;fill-opacity:1;fill-rule:nonzero;stroke:none"
         id="path132" /><path
         d="m 12.016,5.27 c 0,-0.891 -0.032,-1.75 -0.125,-2.391 l 0.015,-0.031 c 0,0 0.172,0.031 0.578,0.031 0.407,0 0.578,-0.031 0.578,-0.031 l 0.032,0.031 C 13,3.566 12.969,4.379 12.969,5.27 l 0,3.578 c 0,0.906 0.031,1.531 0.125,2.25 0,0.093 -0.047,0.125 -0.11,0.125 -0.296,-0.125 -0.593,-0.266 -1.062,-0.297 l -0.031,-0.031 c 0.093,-0.516 0.125,-1.344 0.125,-2.25 l 0,-3.375 z"
         style="fill:#000000;fill-opacity:1;fill-rule:nonzero;stroke:none"
         id="path134" /><path
         d="m 15.027,9.691 c 0,-0.328 0.297,-0.609 0.625,-0.609 0.313,0 0.61,0.281 0.61,0.609 0,0.329 -0.297,0.61 -0.61,0.61 -0.328,0 -0.625,-0.281 -0.625,-0.61 z m 0.141,-4 0,-0.656 c 0,-0.906 -0.031,-1.515 -0.125,-2.156 l 0.016,-0.031 c 0,0 0.171,0.031 0.593,0.031 0.407,0 0.563,-0.031 0.563,-0.031 l 0.031,0.031 c -0.094,0.687 -0.125,1.25 -0.125,2.156 l 0,0.844 c 0,0.891 0.031,1.406 0.125,2.125 0,0.094 -0.047,0.125 -0.109,0.125 C 15.84,8.004 15.543,7.863 15.074,7.832 L 15.043,7.785 c 0.094,-0.5 0.125,-1.203 0.125,-2.094 z"
         style="fill:#000000;fill-opacity:1;fill-rule:nonzero;stroke:none"
         id="path136" /><path
         d="M 17.812,4.02 17.625,3.082 c 0.641,-0.234 1.281,-0.328 1.703,-0.328 1.563,0 1.922,0.984 1.922,1.641 0,0.984 -0.719,1.281 -1.531,1.562 -0.422,0.156 -1.016,0.344 -1.016,0.938 0,0.484 0.438,0.796 0.922,0.796 0.594,0 0.953,-0.468 1.109,-0.796 l 0.157,0.015 0.218,0.797 -0.015,0.031 c -0.328,0.188 -0.844,0.391 -1.422,0.391 -0.828,0 -1.813,-0.469 -1.813,-1.453 0,-0.313 0.094,-0.61 0.235,-0.781 0.25,-0.36 0.687,-0.532 1.109,-0.704 0.672,-0.25 1.125,-0.375 1.125,-0.968 0,-0.625 -0.406,-1.016 -1.016,-1.016 -0.531,0 -1.078,0.313 -1.328,0.828 L 17.812,4.02 z"
         style="fill:#000000;fill-opacity:1;fill-rule:nonzero;stroke:none"
         id="path138" /><path
         d="m 23.125,6.316 c 0.203,1.235 1.078,1.329 1.359,1.329 0.422,0 0.969,-0.266 0.969,-1.172 0,-0.11 -0.047,-0.157 -0.172,-0.157 l -2.156,0 z M 26.359,4.129 C 25.938,3.676 25.453,3.457 24.797,3.457 c -0.672,0 -1.719,0.547 -1.719,2.328 l 3.219,0 c 0.141,0 0.219,0.063 0.219,0.203 0,1 -0.454,2.141 -2.032,2.141 -1.14,0 -2.453,-1.047 -2.453,-2.875 0,-1.375 0.891,-2.5 2.516,-2.5 0.875,0 1.594,0.453 2.047,1.062 l -0.235,0.313 z"
         style="fill:#000000;fill-opacity:1;fill-rule:nonzero;stroke:none"
         id="path140" /><path
         d="m 32.07,5.27 0,1.453 c 0.578,0 1.844,-0.047 2.672,-0.125 l 0.031,0.031 c -0.015,0.109 -0.031,0.234 -0.031,0.344 0,0.109 0.016,0.218 0.031,0.328 L 34.742,7.332 C 34.039,7.285 33.477,7.223 32.07,7.223 l 0,0.968 c 0,0.204 0.016,1.532 0.094,1.813 1.609,0 3.25,-0.141 3.25,-0.141 l 0.031,0.047 c -0.015,0.094 -0.031,0.203 -0.031,0.313 0,0.093 0.016,0.203 0.031,0.359 l -0.031,0.047 c -0.187,-0.031 -0.453,-0.047 -0.703,-0.047 l -3.156,0 c -0.407,0 -0.61,0.047 -0.61,0.047 L 30.93,10.582 C 31.023,9.91 31.039,9.098 31.039,8.191 l 0,-2.921 c 0,-0.891 -0.016,-1.75 -0.109,-2.391 l 0.015,-0.031 c 0,0 0.203,0.031 0.61,0.031 l 3.265,0 c 0.25,0 0.532,-0.016 0.719,-0.031 l 0.031,0.031 c -0.015,0.172 -0.031,0.234 -0.031,0.344 0,0.125 0.016,0.297 0.031,0.39 L 35.539,3.66 c 0,0 -1.766,-0.14 -3.375,-0.14 -0.078,0.296 -0.094,1.546 -0.094,1.75 z"
         style="fill:#000000;fill-opacity:1;fill-rule:nonzero;stroke:none"
         id="path142" /><path
         d="m 38.605,2.848 c 0.125,0.031 0.329,0.031 0.454,0.031 0.109,0 0.359,0 0.453,-0.031 0.625,1.734 1.437,3.437 2.203,5.187 -0.11,-0.031 -0.391,-0.031 -0.516,-0.031 -0.109,0 -0.297,0 -0.406,0.031 C 40.324,6.691 39.777,5.129 39.23,3.957 l -0.015,0 C 38.605,5.332 38.09,6.676 37.668,8.035 37.512,8.004 37.23,8.004 37.074,8.004 c -0.203,0 -0.453,0 -0.64,0.031 0.796,-1.75 1.515,-3.453 2.171,-5.187 z"
         style="fill:#000000;fill-opacity:1;fill-rule:nonzero;stroke:none"
         id="path144" /><path
         d="m 45.504,5.551 -0.031,-1.36 c 0,-0.156 -0.078,-0.234 -0.172,-0.312 -0.313,-0.25 -0.688,-0.516 -1.016,-0.516 -0.515,0 -0.797,0.36 -0.797,0.735 0,0.531 0.188,0.968 1.063,1.203 l 0.953,0.25 z m 0.922,-1.766 c 0,0.344 0.047,2.266 0.047,2.406 0,1.61 -1.063,1.938 -1.922,1.938 -0.86,0 -1.485,-0.5 -1.766,-0.75 L 42.754,7.332 42.941,6.535 43.098,6.52 c 0.312,0.546 0.812,1.062 1.343,1.062 0.407,0 1.079,-0.047 1.079,-1.406 0,-0.078 -0.032,-0.125 -0.063,-0.141 L 44.395,5.785 C 43.254,5.504 42.52,4.863 42.52,4.051 c 0,-0.891 0.578,-1.297 1.406,-1.297 0.625,0 0.953,0.156 1.547,0.703 l 0.031,0 c 0.016,-0.203 0.156,-0.703 0.719,-0.703 0.359,0 0.672,0.156 1.047,0.641 L 47.082,3.645 47.035,3.66 C 46.926,3.582 46.77,3.41 46.613,3.41 c -0.14,0 -0.187,0.141 -0.187,0.375 z"
         style="fill:#000000;fill-opacity:1;fill-rule:nonzero;stroke:none"
         id="path146" /><path
         d="m 52.766,5.035 0,1.203 c 0,1.063 -0.282,1.891 -1.344,1.891 -0.61,0 -1.172,-0.094 -1.938,-0.984 l -0.015,0 c 0,0 0.047,0.5 0.109,0.859 0,0.094 -0.031,0.125 -0.109,0.125 C 49.172,8.004 48.922,7.863 48.438,7.832 L 48.422,7.785 c 0.094,-0.5 0.109,-1.203 0.109,-2.094 l 0,-0.656 c 0,-0.906 -0.015,-1.515 -0.109,-2.156 l 0,-0.031 c 0,0 0.172,0.031 0.594,0.031 0.406,0 0.578,-0.031 0.578,-0.031 l 0.015,0.031 c -0.093,0.687 -0.125,1.25 -0.125,2.156 l 0,1.516 c 0.61,0.719 1.047,0.875 1.578,0.875 0.626,0 0.75,-0.391 0.75,-1.219 l 0,-1.172 c 0,-0.906 -0.015,-1.515 -0.124,-2.156 l 0.015,-0.031 c 0,0 0.172,0.031 0.578,0.031 0.407,0 0.578,-0.031 0.578,-0.031 l 0.032,0.031 c -0.11,0.687 -0.125,1.25 -0.125,2.156 z"
         style="fill:#000000;fill-opacity:1;fill-rule:nonzero;stroke:none"
         id="path148" /><path
         d="m 55.535,2.707 0.235,0 c 0.359,0 0.656,0.031 0.828,0.031 0.562,0 1.015,-0.015 1.343,-0.203 0.454,-0.265 0.532,-0.437 0.532,-0.75 0,-0.719 -1.125,-1.234 -2.157,-1.234 -0.406,0 -1.359,0.265 -1.359,1.078 0,0.406 0.141,0.734 0.578,1.078 z m 2.844,3.625 c 0,0.563 -0.219,1.031 -0.578,1.344 0.359,-0.031 0.75,-0.078 1.25,-0.125 l 0.031,0.031 c -0.031,0.109 -0.031,0.203 -0.031,0.313 0,0.109 0,0.203 0.031,0.312 l -0.031,0.031 c -0.578,-0.047 -1,-0.172 -1.891,-0.218 -0.219,0.078 -0.453,0.109 -0.703,0.109 -1.016,0 -1.969,-0.719 -1.969,-1.813 0,-0.656 0.235,-1.015 0.563,-1.343 -0.328,-0.282 -0.5,-0.797 -0.5,-1.203 0,-0.438 0.25,-0.766 0.547,-0.922 C 54.488,2.457 54.16,1.91 54.16,1.395 c 0,-1.032 0.953,-1.36 1.828,-1.36 1.532,0 3.219,0.735 3.219,2.031 0,0.375 -0.172,0.782 -0.516,1.063 -0.437,0.391 -1.265,0.391 -1.671,0.391 -0.204,0 -0.485,-0.016 -0.766,-0.063 -0.156,0 -0.281,-0.016 -0.344,-0.016 -0.328,0 -0.687,0.11 -0.687,0.625 0,0.235 0.062,0.485 0.203,0.688 0.265,-0.172 0.578,-0.25 1.015,-0.25 1,0 1.938,0.656 1.938,1.828 z M 57.473,6.207 c 0,-0.844 -0.563,-1.172 -0.969,-1.172 -0.797,0 -1.078,0.688 -1.078,1.453 0,0.532 0.297,1.11 0.922,1.11 0.718,0 1.125,-0.485 1.125,-1.391 z"
         style="fill:#000000;fill-opacity:1;fill-rule:nonzero;stroke:none"
         id="path150" /><path
         d="M 62.684,10.895 61.762,9.473 C 61.668,9.316 61.637,9.27 61.637,9.145 c 0,-0.079 0.078,-0.157 0.172,-0.157 0.078,0 0.171,0.047 0.359,0.219 l 1.375,1.313 -0.047,0.125 c -0.266,0.265 -0.578,0.281 -0.656,0.281 -0.063,0 -0.125,-0.016 -0.156,-0.031 z M 60.949,6.316 c 0.203,1.235 1.078,1.329 1.36,1.329 0.421,0 0.968,-0.266 0.968,-1.172 0,-0.11 -0.047,-0.157 -0.172,-0.157 l -2.156,0 z M 64.184,4.129 C 63.762,3.676 63.277,3.457 62.621,3.457 c -0.672,0 -1.719,0.547 -1.719,2.328 l 3.219,0 c 0.141,0 0.219,0.063 0.219,0.203 0,1 -0.453,2.141 -2.031,2.141 -1.141,0 -2.454,-1.047 -2.454,-2.875 0,-1.375 0.891,-2.5 2.516,-2.5 0.875,0 1.594,0.453 2.047,1.062 l -0.234,0.313 z"
         style="fill:#000000;fill-opacity:1;fill-rule:nonzero;stroke:none"
         id="path152" /><path
         d="m 65.812,5.27 c 0,-0.891 -0.031,-1.75 -0.124,-2.391 l 0.015,-0.031 c 0,0 0.172,0.031 0.578,0.031 0.407,0 0.578,-0.031 0.578,-0.031 l 0.032,0.031 c -0.094,0.687 -0.125,1.5 -0.125,2.391 l 0,3.578 c 0,0.906 0.031,1.531 0.125,2.25 0,0.093 -0.047,0.125 -0.11,0.125 -0.297,-0.125 -0.593,-0.266 -1.062,-0.297 l -0.031,-0.031 c 0.093,-0.516 0.124,-1.344 0.124,-2.25 l 0,-3.375 z"
         style="fill:#000000;fill-opacity:1;fill-rule:nonzero;stroke:none"
         id="path154" /><path
         d="m 68.828,9.691 c 0,-0.328 0.297,-0.609 0.625,-0.609 0.313,0 0.609,0.281 0.609,0.609 0,0.329 -0.296,0.61 -0.609,0.61 -0.328,0 -0.625,-0.281 -0.625,-0.61 z m 0.141,-4 0,-0.656 c 0,-0.906 -0.031,-1.515 -0.125,-2.156 l 0.015,-0.031 c 0,0 0.172,0.031 0.594,0.031 0.406,0 0.563,-0.031 0.563,-0.031 l 0.031,0.031 c -0.094,0.687 -0.125,1.25 -0.125,2.156 l 0,0.844 c 0,0.891 0.031,1.406 0.125,2.125 0,0.094 -0.047,0.125 -0.109,0.125 C 69.641,8.004 69.344,7.863 68.875,7.832 L 68.844,7.785 c 0.094,-0.5 0.125,-1.203 0.125,-2.094 z"
         style="fill:#000000;fill-opacity:1;fill-rule:nonzero;stroke:none"
         id="path156" /><path
         d="m 75.203,6.77 0,-3.11 C 74.891,3.426 74.516,3.41 74.281,3.41 c -0.687,0 -1.656,0.375 -1.656,2.188 0,1.234 0.437,2 1.391,2 0.5,0 0.875,-0.282 1.187,-0.828 z m 0,-4.266 c 0,-0.891 -0.015,-1.75 -0.109,-2.391 l 0,-0.047 c 0,0 0.172,0.047 0.594,0.047 0.406,0 0.578,-0.047 0.578,-0.047 l 0.015,0.047 c -0.093,0.672 -0.125,1.485 -0.125,2.391 l 0,5.359 C 76.156,8.035 76.141,8.16 76,8.16 75.922,8.16 75.812,8.082 75.734,7.941 L 75.547,7.645 c -0.391,0.343 -0.906,0.484 -1.485,0.484 -1.468,0 -2.578,-1.203 -2.578,-2.781 0,-1.11 0.797,-2.594 2.516,-2.594 0.688,0 1.031,0.25 1.203,0.406 l 0,-0.656 z"
         style="fill:#000000;fill-opacity:1;fill-rule:nonzero;stroke:none"
         id="path158" /><path
         d="m 81.285,3.645 0.016,0 0.062,-0.766 c 0,-0.031 0.032,-0.031 0.11,-0.031 0.156,0.015 0.234,0.031 0.406,0.031 0.156,0 0.375,-0.016 0.531,-0.031 l 0.031,0.031 c -0.093,0.516 -0.203,1.406 -0.203,2.297 l 0,0.672 c 0,0.906 0.016,1.531 0.125,2.156 l -0.015,0.031 c 0,0 -0.172,-0.031 -0.594,-0.031 -0.406,0 -0.563,0.031 -0.563,0.031 L 81.16,8.004 C 81.27,7.332 81.285,6.77 81.285,5.848 l 0,-1.547 C 80.973,3.926 80.473,3.41 79.941,3.41 c -0.359,0 -0.89,0.203 -0.89,1.266 l 0,1.172 c 0,0.906 0.015,1.531 0.125,2.156 L 79.16,8.035 c 0,0 -0.156,-0.031 -0.578,-0.031 -0.406,0 -0.578,0.031 -0.578,0.031 L 77.988,8.004 c 0.094,-0.672 0.11,-1.234 0.11,-2.156 l 0,-1.469 c 0,-0.813 0.343,-1.625 1.531,-1.625 0.5,0 0.984,0.172 1.656,0.891 z"
         style="fill:#000000;fill-opacity:1;fill-rule:nonzero;stroke:none"
         id="path160" /><path
         d="m 84.824,6.316 c 0.203,1.235 1.078,1.329 1.36,1.329 0.421,0 0.968,-0.266 0.968,-1.172 0,-0.11 -0.047,-0.157 -0.172,-0.157 l -2.156,0 z M 88.059,4.129 C 87.637,3.676 87.152,3.457 86.496,3.457 c -0.672,0 -1.719,0.547 -1.719,2.328 l 3.219,0 c 0.141,0 0.219,0.063 0.219,0.203 0,1 -0.453,2.141 -2.031,2.141 -1.141,0 -2.454,-1.047 -2.454,-2.875 0,-1.375 0.891,-2.5 2.516,-2.5 0.875,0 1.594,0.453 2.047,1.062 l -0.234,0.313 z"
         style="fill:#000000;fill-opacity:1;fill-rule:nonzero;stroke:none"
         id="path162" /><path
         d="M 95.91,4.176 C 95.473,3.613 94.988,3.441 94.52,3.441 c -0.657,0 -1.422,0.579 -1.422,2.079 0,1.796 1.109,2.062 1.672,2.062 0.562,0 0.859,-0.25 1.14,-0.703 l 0,-2.703 z m 0,-0.531 0.031,0 0.063,-0.766 c 0,-0.031 0.031,-0.031 0.094,-0.031 0.156,0.015 0.25,0.031 0.422,0.031 0.14,0 0.375,-0.016 0.531,-0.031 l 0.015,0.031 c -0.093,0.516 -0.203,1.406 -0.203,2.297 l 0,3.672 c 0,0.89 0.032,1.531 0.125,2.25 0,0.093 -0.031,0.125 -0.109,0.125 -0.297,-0.125 -0.578,-0.266 -1.063,-0.297 l -0.015,-0.031 c 0.094,-0.516 0.109,-1.344 0.109,-2.25 l 0,-0.782 c -0.265,0.157 -0.765,0.266 -1,0.266 -1.562,0 -2.828,-1.203 -2.828,-2.828 0,-1.469 0.828,-2.547 2.125,-2.547 0.563,0 1.281,0.344 1.703,0.891 z"
         style="fill:#000000;fill-opacity:1;fill-rule:nonzero;stroke:none"
         id="path164" /><path
         d="m 101.93,3.645 0.015,0 0.063,-0.766 c 0,-0.031 0.031,-0.031 0.109,-0.031 0.156,0.015 0.235,0.031 0.406,0.031 0.157,0 0.375,-0.016 0.532,-0.031 l 0.031,0.031 c -0.094,0.516 -0.203,1.406 -0.203,2.297 l 0,0.672 c 0,0.906 0.015,1.531 0.125,2.156 l -0.016,0.031 c 0,0 -0.172,-0.031 -0.594,-0.031 -0.406,0 -0.562,0.031 -0.562,0.031 l -0.031,-0.031 c 0.109,-0.672 0.125,-1.234 0.125,-2.156 l 0,-1.547 c -0.313,-0.375 -0.813,-0.891 -1.344,-0.891 -0.359,0 -0.891,0.203 -0.891,1.266 l 0,1.172 c 0,0.906 0.016,1.531 0.125,2.156 l -0.015,0.031 c 0,0 -0.157,-0.031 -0.578,-0.031 -0.407,0 -0.579,0.031 -0.579,0.031 L 98.633,8.004 C 98.727,7.332 98.742,6.77 98.742,5.848 l 0,-1.469 c 0,-0.813 0.344,-1.625 1.531,-1.625 0.5,0 0.985,0.172 1.657,0.891 z"
         style="fill:#000000;fill-opacity:1;fill-rule:nonzero;stroke:none"
         id="path166" /><path
         d="m 109.227,5.27 0,2.921 c 0,0.907 0.015,1.766 0.109,2.391 l -0.016,0.047 c 0,0 -0.203,-0.047 -0.609,-0.047 -0.406,0 -0.625,0.047 -0.625,0.047 l -0.031,-0.047 c 0.093,-0.672 0.14,-1.484 0.14,-2.391 l 0,-2.921 c 0,-0.891 -0.031,-1.75 -0.125,-2.391 l 0.016,-0.031 c 0,0 0.219,0.031 0.625,0.031 l 3.266,0 c 0.25,0 0.515,-0.016 0.703,-0.031 l 0.031,0.031 c -0.016,0.172 -0.031,0.234 -0.031,0.344 0,0.125 0.015,0.297 0.031,0.39 L 112.68,3.66 c 0,0 -1.766,-0.14 -3.36,-0.14 -0.093,0.296 -0.093,1.546 -0.093,1.75 z"
         style="fill:#000000;fill-opacity:1;fill-rule:nonzero;stroke:none"
         id="path168" /><path
         d="m 116.734,5.551 -0.031,-1.36 c 0,-0.156 -0.078,-0.234 -0.172,-0.312 -0.312,-0.25 -0.687,-0.516 -1.015,-0.516 -0.516,0 -0.797,0.36 -0.797,0.735 0,0.531 0.187,0.968 1.062,1.203 l 0.953,0.25 z m 0.922,-1.766 c 0,0.344 0.047,2.266 0.047,2.406 0,1.61 -1.062,1.938 -1.922,1.938 -0.859,0 -1.484,-0.5 -1.765,-0.75 l -0.032,-0.047 0.188,-0.797 0.156,-0.015 c 0.313,0.546 0.813,1.062 1.344,1.062 0.406,0 1.078,-0.047 1.078,-1.406 0,-0.078 -0.031,-0.125 -0.062,-0.141 l -1.063,-0.25 c -1.141,-0.281 -1.875,-0.922 -1.875,-1.734 0,-0.891 0.578,-1.297 1.406,-1.297 0.625,0 0.953,0.156 1.547,0.703 l 0.031,0 c 0.016,-0.203 0.157,-0.703 0.719,-0.703 0.359,0 0.672,0.156 1.047,0.641 l -0.188,0.25 -0.046,0.015 C 118.156,3.582 118,3.41 117.844,3.41 c -0.141,0 -0.188,0.141 -0.188,0.375 z"
         style="fill:#000000;fill-opacity:1;fill-rule:nonzero;stroke:none"
         id="path170" /><path
         d="m 121.871,7.582 c 0.453,0 0.891,-0.328 1.203,-0.859 l 0.156,0 0.282,0.984 -0.032,0.031 c -0.375,0.203 -1,0.391 -1.593,0.391 -1.297,0 -2.688,-1.063 -2.688,-2.766 0,-1.547 1.031,-2.609 2.531,-2.609 0.719,0 1.485,0.391 1.875,1.219 l -0.234,0.187 -0.062,0 c -0.36,-0.547 -0.797,-0.75 -1.313,-0.75 -0.922,0 -1.781,0.813 -1.781,2.219 0,1.312 0.859,1.953 1.656,1.953 z"
         style="fill:#000000;fill-opacity:1;fill-rule:nonzero;stroke:none"
         id="path172" /></g></g></svg>